<svg width="50" height="50" viewBox="0 0 50 50" fill="none" xmlns="http://www.w3.org/2000/svg">
<path fill-rule="evenodd" clip-rule="evenodd" d="M22.5 1.44338C24.047 0.550212 25.953 0.550212 27.5 1.44338L44.1506 11.0566C45.6976 11.9498 46.6506 13.6004 46.6506 15.3868V34.6132C46.6506 36.3996 45.6976 38.0502 44.1506 38.9434L27.5 48.5566C25.953 49.4498 24.047 49.4498 22.5 48.5566L5.84936 38.9434C4.30236 38.0502 3.34936 36.3996 3.34936 34.6133V15.3868C3.34936 13.6004 4.30236 11.9498 5.84936 11.0566L22.5 1.44338Z" fill="url(#paint0_linear_0_159)"/>
<path fill-rule="evenodd" clip-rule="evenodd" d="M33.0069 29.6389C32.0258 30.8038 30.7825 31.3161 30.1975 31.5572L30.1537 31.5752C29.8752 31.6906 29.3913 31.8631 28.8692 32.0363L29.7626 35.3706L27.71 35.9206L26.831 32.6403L25.2679 33.0592L26.1468 36.3395L24.0943 36.8894L23.2153 33.6091L19.1777 34.691L18.939 32.1127L20.1665 31.7838C20.5791 31.6732 20.7412 31.5888 20.8701 31.3796C20.999 31.1702 20.9706 30.9107 20.9166 30.7089L18.6409 22.2162C18.4984 21.6842 18.4165 21.5518 18.0988 21.3441C17.7808 21.1359 17.1959 21.2541 16.872 21.3409L15.6855 21.6588L15.1145 19.5277L19.1522 18.4458L18.2707 15.1561L20.3231 14.6062L21.2046 17.8959L22.7677 17.4771L21.8863 14.1874L23.9389 13.6374L24.8309 16.9665C26.3865 16.6514 27.6037 16.6377 28.7948 17.1059C30.3347 17.711 30.7092 19.3786 30.7858 19.7796C30.8626 20.1805 30.8931 20.9846 30.6784 21.566C30.4646 22.1477 29.7517 22.8631 29.7517 22.8631C29.7517 22.8631 30.8055 22.8067 31.6473 23.1466C32.4883 23.4868 33.256 24.2779 33.5915 25.6478C33.9283 27.0174 34.0127 28.4443 33.0069 29.6389ZM25.7565 25.5989C24.7217 25.8042 23.4355 26.2208 23.4355 26.2208L24.6151 30.6229C24.6151 30.6229 25.9847 30.287 26.8782 29.9756C27.7708 29.6645 28.6493 29.1825 29.0498 28.7973C29.4501 28.4125 29.9082 27.858 29.6384 26.8512C29.3685 25.8439 28.584 25.6021 28.1489 25.5131C27.7141 25.4237 26.7909 25.3939 25.7565 25.5989ZM26.5757 22.6346C26.0856 23.1053 25.3358 23.491 24.5951 23.7204C23.8616 23.9477 22.9058 24.1737 22.8882 24.1778L22.888 24.1779L21.8266 20.2169C21.8266 20.2169 22.4635 19.9846 23.1085 19.8218C23.7541 19.6591 24.3247 19.5268 25.2383 19.5595C26.1517 19.5927 26.8195 20.092 27.0396 20.8349C27.2589 21.5782 27.0665 22.164 26.5757 22.6346Z" fill="white"/>
<defs>
<linearGradient id="paint0_linear_0_159" x1="65.4639" y1="35.3301" x2="36.1241" y2="-14.6699" gradientUnits="userSpaceOnUse">
<stop stop-color="#568525"/>
<stop offset="1" stop-color="#8ABE42"/>
</linearGradient>
</defs>
</svg>
