<svg width="50" height="50" viewBox="0 0 50 50" fill="none" xmlns="http://www.w3.org/2000/svg">
<path fill-rule="evenodd" clip-rule="evenodd" d="M22.5 1.44338C24.047 0.550212 25.953 0.550212 27.5 1.44338L44.1506 11.0566C45.6976 11.9498 46.6506 13.6004 46.6506 15.3868V34.6132C46.6506 36.3996 45.6976 38.0502 44.1506 38.9434L27.5 48.5566C25.953 49.4498 24.047 49.4498 22.5 48.5566L5.84936 38.9434C4.30236 38.0502 3.34936 36.3996 3.34936 34.6133V15.3868C3.34936 13.6004 4.30236 11.9498 5.84936 11.0566L22.5 1.44338Z" fill="url(#paint0_linear_0_173)"/>
<path d="M20.3354 23.08L24.9939 18.4216L29.6547 23.0824L32.3654 20.3718L24.9939 13L17.6249 20.3694L20.3354 23.08Z" fill="white"/>
<path d="M13.0001 24.9937L15.7108 22.2829L18.4213 24.9935L15.7106 27.7042L13.0001 24.9937Z" fill="white"/>
<path d="M20.3354 26.908L24.9939 31.5664L29.6546 26.9058L32.3667 29.615L32.3654 29.6164L24.9939 36.988L17.6246 29.6189L17.6208 29.6151L20.3354 26.908Z" fill="white"/>
<path d="M31.5669 24.9951L34.2776 22.2844L36.9882 24.9949L34.2774 27.7057L31.5669 24.9951Z" fill="white"/>
<path d="M27.7433 24.9925H27.7445L24.9939 22.2419L22.9612 24.2747H22.961L22.7275 24.5083L22.2458 24.9901L22.242 24.9938L22.2458 24.9978L24.9939 27.746L27.7445 24.9954L27.7458 24.9938L27.7433 24.9925Z" fill="white"/>
<defs>
<linearGradient id="paint0_linear_0_173" x1="65.4238" y1="34.5371" x2="34.498" y2="-15.4629" gradientUnits="userSpaceOnUse">
<stop stop-color="#E6B000"/>
<stop offset="1" stop-color="#F5CD49"/>
</linearGradient>
</defs>
</svg>
