<svg width="50" height="50" viewBox="0 0 50 50" fill="none" xmlns="http://www.w3.org/2000/svg">
<path fill-rule="evenodd" clip-rule="evenodd" d="M22.5 1.44338C24.047 0.550212 25.953 0.550212 27.5 1.44338L44.1506 11.0566C45.6976 11.9498 46.6506 13.6004 46.6506 15.3868V34.6132C46.6506 36.3996 45.6976 38.0502 44.1506 38.9434L27.5 48.5566C25.953 49.4498 24.047 49.4498 22.5 48.5566L5.84936 38.9434C4.30236 38.0502 3.34936 36.3996 3.34936 34.6133V15.3868C3.34936 13.6004 4.30236 11.9498 5.84936 11.0566L22.5 1.44338Z" fill="url(#paint0_linear_0_45)"/>
<path fill-rule="evenodd" clip-rule="evenodd" d="M30.247 33.021C28.8149 33.5393 27.482 33.3613 26.8549 33.2776L26.8079 33.2713C26.509 33.2319 26.0037 33.1394 25.465 33.0284L24.5716 36.3627L22.5189 35.8126L23.3979 32.5323L21.8347 32.1135L20.9557 35.3938L18.9032 34.8438L19.7822 31.5635L15.7445 30.4816L16.8269 28.1294L18.0545 28.4583C18.4671 28.5689 18.6497 28.5768 18.8659 28.4601C19.0822 28.3431 19.1874 28.1043 19.2415 27.9025L21.5171 19.4098C21.6596 18.8778 21.655 18.7222 21.4836 18.3834C21.3123 18.0441 20.7467 17.8541 20.4228 17.7673L19.2363 17.4494L19.8073 15.3183L23.845 16.4002L24.7265 13.1105L26.7789 13.6604L25.8974 16.9501L27.4606 17.3689L28.342 14.0792L30.3947 14.6292L29.5026 17.9584C31.0074 18.4633 32.0684 19.06 32.8657 20.0611C33.8968 21.355 33.3873 22.9864 33.2532 23.372C33.1192 23.7577 32.7436 24.4692 32.267 24.8654C31.791 25.2623 30.8158 25.5253 30.8158 25.5253C30.8158 25.5253 31.7566 26.0034 32.3157 26.7187C32.874 27.4338 33.1433 28.5028 32.7489 29.8569C32.3558 31.2114 31.7153 32.4893 30.247 33.021ZM25.988 25.897C24.9892 25.5574 23.667 25.2751 23.667 25.2751L22.4875 29.6772C22.4875 29.6772 23.8415 30.0712 24.771 30.2482C25.6997 30.4251 26.7014 30.4469 27.2409 30.3136C27.7799 30.1805 28.4539 29.9293 28.7237 28.9225C28.9936 27.9152 28.4351 27.3136 28.1027 27.019C27.7709 26.7242 26.9863 26.2367 25.988 25.897ZM28.1796 23.7395C27.5198 23.902 26.6776 23.8612 25.9215 23.6896C25.1726 23.5196 24.2318 23.2374 24.2145 23.2322L24.2143 23.2321L25.2756 19.2711C25.2756 19.2711 25.9433 19.3884 26.5833 19.57C27.2238 19.7518 27.7841 19.9225 28.5589 20.4077C29.3333 20.8931 29.662 21.6595 29.4812 22.4129C29.2995 23.1662 28.84 23.5773 28.1796 23.7395Z" fill="white"/>
<defs>
<linearGradient id="paint0_linear_0_45" x1="65.4639" y1="35.3301" x2="36.1241" y2="-14.6699" gradientUnits="userSpaceOnUse">
<stop stop-color="#FE9D39"/>
<stop offset="1" stop-color="#FFDA47"/>
</linearGradient>
</defs>
</svg>
