<svg width="50" height="50" viewBox="0 0 50 50" fill="none" xmlns="http://www.w3.org/2000/svg">
<path fill-rule="evenodd" clip-rule="evenodd" d="M22.5 1.44338C24.047 0.550212 25.953 0.550212 27.5 1.44338L44.1506 11.0566C45.6976 11.9498 46.6506 13.6004 46.6506 15.3868V34.6132C46.6506 36.3996 45.6976 38.0502 44.1506 38.9434L27.5 48.5566C25.953 49.4498 24.047 49.4498 22.5 48.5566L5.84936 38.9434C4.30236 38.0502 3.34936 36.3996 3.34936 34.6133V15.3868C3.34936 13.6004 4.30236 11.9498 5.84936 11.0566L22.5 1.44338Z" fill="url(#paint0_linear_0_72)"/>
<path fill-rule="evenodd" clip-rule="evenodd" d="M18.5468 20.0671L16 32.0479L24.7084 37L33.4167 32.0479L30.7878 20.0671L24.7084 12L18.5468 20.0671ZM19.6217 20.5354L24.7021 13.8838L29.7143 20.5347L32.1184 31.4908L24.7084 35.7046L17.2935 31.488L19.6217 20.5354Z" fill="white"/>
<path fill-rule="evenodd" clip-rule="evenodd" d="M24.6673 12L18.5468 20.0671L24.7084 37L30.7878 20.0671L24.6673 12ZM24.7011 33.6272L19.8346 20.2534L24.6673 13.8838L29.5018 20.2559L24.7011 33.6272Z" fill="white"/>
<defs>
<linearGradient id="paint0_linear_0_72" x1="65.4639" y1="35.3301" x2="36.1241" y2="-14.6699" gradientUnits="userSpaceOnUse">
<stop stop-color="#23203F"/>
<stop offset="1" stop-color="#7CADE2"/>
</linearGradient>
</defs>
</svg>
