<svg width="50" height="50" viewBox="0 0 50 50" fill="none" xmlns="http://www.w3.org/2000/svg">
<path fill-rule="evenodd" clip-rule="evenodd" d="M22.5 1.44338C24.047 0.550212 25.953 0.550212 27.5 1.44338L44.1506 11.0566C45.6976 11.9498 46.6506 13.6004 46.6506 15.3868V34.6132C46.6506 36.3996 45.6976 38.0502 44.1506 38.9434L27.5 48.5566C25.953 49.4498 24.047 49.4498 22.5 48.5566L5.84936 38.9434C4.30236 38.0502 3.34936 36.3996 3.34936 34.6133V15.3868C3.34936 13.6004 4.30236 11.9498 5.84936 11.0566L22.5 1.44338Z" fill="url(#paint0_linear_0_150)"/>
<path opacity="0.3" d="M24.7754 11.5L24.6056 12.098V29.4512L24.7754 29.6269L32.5509 24.8655L24.7754 11.5Z" fill="white"/>
<path opacity="0.8" d="M24.7755 11.5L17 24.8655L24.7755 29.6269V21.2042V11.5Z" fill="white"/>
<path opacity="0.3" d="M24.7754 31.1521L24.6797 31.2729V37.4545L24.7754 37.7441L32.5555 26.3931L24.7754 31.1521Z" fill="white"/>
<path opacity="0.8" d="M24.7755 37.7441V31.1521L17 26.3931L24.7755 37.7441Z" fill="white"/>
<path opacity="0.5" d="M24.7754 29.6269L32.5507 24.8656L24.7754 21.2043V29.6269Z" fill="white"/>
<path opacity="0.8" d="M17.0001 24.8656L24.7754 29.6269V21.2043L17.0001 24.8656Z" fill="white"/>
<defs>
<linearGradient id="paint0_linear_0_150" x1="-16.0566" y1="16.2266" x2="16.3965" y2="66.2266" gradientUnits="userSpaceOnUse">
<stop stop-color="#58D98C"/>
<stop offset="1" stop-color="#599270"/>
</linearGradient>
</defs>
</svg>
