<svg width="50" height="50" viewBox="0 0 50 50" fill="none" xmlns="http://www.w3.org/2000/svg">
<path fill-rule="evenodd" clip-rule="evenodd" d="M22.5 1.44338C24.047 0.550212 25.953 0.550212 27.5 1.44338L44.1506 11.0566C45.6976 11.9498 46.6506 13.6004 46.6506 15.3868V34.6132C46.6506 36.3996 45.6976 38.0502 44.1506 38.9434L27.5 48.5566C25.953 49.4498 24.047 49.4498 22.5 48.5566L5.84936 38.9434C4.30236 38.0502 3.34936 36.3996 3.34936 34.6133V15.3868C3.34936 13.6004 4.30236 11.9498 5.84936 11.0566L22.5 1.44338Z" fill="url(#paint0_linear_0_53)"/>
<path opacity="0.3" d="M24.7754 11L24.6056 11.598V28.9512L24.7754 29.1269L32.5509 24.3655L24.7754 11Z" fill="white"/>
<path opacity="0.8" d="M24.7755 11L17 24.3655L24.7755 29.1269V20.7042V11Z" fill="white"/>
<path opacity="0.3" d="M24.7754 30.6521L24.6797 30.7729V36.9545L24.7754 37.2441L32.5555 25.8931L24.7754 30.6521Z" fill="white"/>
<path opacity="0.8" d="M24.7755 37.2441V30.6521L17 25.8931L24.7755 37.2441Z" fill="white"/>
<path opacity="0.5" d="M24.7754 29.1269L32.5508 24.3656L24.7754 20.7043V29.1269Z" fill="white"/>
<path opacity="0.8" d="M17.0001 24.3656L24.7754 29.1269V20.7043L17.0001 24.3656Z" fill="white"/>
<defs>
<linearGradient id="paint0_linear_0_53" x1="65.4238" y1="34.5371" x2="34.498" y2="-15.4629" gradientUnits="userSpaceOnUse">
<stop stop-color="#221F30"/>
<stop offset="1" stop-color="#575275"/>
</linearGradient>
</defs>
</svg>
