<svg width="50" height="50" viewBox="0 0 50 50" fill="none" xmlns="http://www.w3.org/2000/svg">
<path fill-rule="evenodd" clip-rule="evenodd" d="M22.5 1.44338C24.047 0.550212 25.953 0.550212 27.5 1.44338L44.1506 11.0566C45.6976 11.9498 46.6506 13.6004 46.6506 15.3868V34.6132C46.6506 36.3996 45.6976 38.0502 44.1506 38.9434L27.5 48.5566C25.953 49.4498 24.047 49.4498 22.5 48.5566L5.84936 38.9434C4.30236 38.0502 3.34936 36.3996 3.34936 34.6133V15.3868C3.34936 13.6004 4.30236 11.9498 5.84936 11.0566L22.5 1.44338Z" fill="url(#paint0_linear_0_69)"/>
<path d="M32.217 34H18.1191L19.304 28.3754L17 29.9462L17.5597 26.8682L19.9695 25.2188L22.3333 14H26.7344L25.107 21.7033L30.8369 17.7822L30.1654 20.9716L24.4364 24.8767L23.303 30.2426H33L32.217 34Z" fill="white"/>
<defs>
<linearGradient id="paint0_linear_0_69" x1="65.4639" y1="35.3301" x2="36.1241" y2="-14.6699" gradientUnits="userSpaceOnUse">
<stop stop-color="#B3B3B3"/>
<stop offset="1" stop-color="#E6E6E6"/>
</linearGradient>
</defs>
</svg>
