<svg width="50" height="50" viewBox="0 0 50 50" fill="none" xmlns="http://www.w3.org/2000/svg">
<path fill-rule="evenodd" clip-rule="evenodd" d="M22.5 1.44338C24.047 0.550212 25.953 0.550212 27.5 1.44338L44.1506 11.0566C45.6976 11.9498 46.6506 13.6004 46.6506 15.3868V34.6132C46.6506 36.3996 45.6976 38.0502 44.1506 38.9434L27.5 48.5566C25.953 49.4498 24.047 49.4498 22.5 48.5566L5.84936 38.9434C4.30236 38.0502 3.34936 36.3996 3.34936 34.6133V15.3868C3.34936 13.6004 4.30236 11.9498 5.84936 11.0566L22.5 1.44338Z" fill="url(#paint0_linear_0_136)"/>
<path fill-rule="evenodd" clip-rule="evenodd" d="M19.8403 15C17.5387 14.9985 15.5544 16.621 15.097 18.8789C14.6395 21.1368 15.8352 23.4044 17.9545 24.301C20.0801 25.192 22.5404 24.4657 23.8382 22.5639C25.1359 20.6622 24.9121 18.1114 23.3029 16.4637H24.6737V15H19.8403ZM30.1653 15.0002C27.4953 15.0002 25.3306 17.1667 25.3306 19.8391C25.3306 22.5116 27.4953 24.678 30.1653 24.678C32.8353 24.678 35 22.5116 35 19.8391C35 17.1667 32.8357 15 30.1655 15L30.1653 15.0002ZM15.0058 30.1611C15.0058 27.4886 17.1703 25.3222 19.8403 25.3222H19.8405C22.5107 25.3222 24.6752 27.4886 24.6752 30.1611C24.6752 32.8335 22.5105 35 19.8405 35C17.1705 35 15.0058 32.8335 15.0058 30.1611ZM16.4699 30.1628C16.4699 32.026 17.9796 33.5363 19.8403 33.5363C21.7006 33.534 23.2077 32.0244 23.2109 30.1628C23.2109 28.2995 21.7016 26.7892 19.8403 26.7892C17.979 26.7892 16.4699 28.2995 16.4699 30.1628ZM26.7949 19.8408C26.7949 21.7041 28.3046 23.2143 30.1653 23.2143L30.1655 23.2141C32.0248 23.211 33.533 21.7033 33.5361 19.8408C33.5361 17.9775 32.0277 16.4673 30.1655 16.4673C28.3034 16.4673 26.7949 17.9775 26.7949 19.8408ZM19.8405 23.2125C21.702 23.2125 23.2111 21.702 23.2111 19.8389V19.8395H23.2128C23.2094 17.9769 21.7016 16.466 19.8403 16.466C17.979 16.466 16.4701 17.9758 16.4701 19.8389C16.4701 21.702 17.979 23.2125 19.8405 23.2125Z" fill="white"/>
<defs>
<linearGradient id="paint0_linear_0_136" x1="65.4639" y1="35.3301" x2="36.1241" y2="-14.6699" gradientUnits="userSpaceOnUse">
<stop stop-color="#174796"/>
<stop offset="1" stop-color="#1D61CF"/>
</linearGradient>
</defs>
</svg>
