<svg width="50" height="50" viewBox="0 0 50 50" fill="none" xmlns="http://www.w3.org/2000/svg">
<path fill-rule="evenodd" clip-rule="evenodd" d="M22.5 1.44338C24.047 0.550212 25.953 0.550212 27.5 1.44338L44.1506 11.0566C45.6976 11.9498 46.6506 13.6004 46.6506 15.3868V34.6132C46.6506 36.3996 45.6976 38.0502 44.1506 38.9434L27.5 48.5566C25.953 49.4498 24.047 49.4498 22.5 48.5566L5.84936 38.9434C4.30236 38.0502 3.34936 36.3996 3.34936 34.6133V15.3868C3.34936 13.6004 4.30236 11.9498 5.84936 11.0566L22.5 1.44338Z" fill="url(#paint0_linear_0_62)"/>
<path d="M24.5839 13H25.3026C25.7535 13.0296 26.2052 13.0564 26.653 13.12C28.1861 13.336 29.6811 13.846 31.0143 14.6351C30.7075 14.8791 30.3786 15.0936 30.064 15.327C27.9373 16.85 25.816 18.3808 23.6867 19.9C23.5142 19.757 23.3647 19.5891 23.2011 19.4366C22.7151 18.971 22.2428 18.4917 21.7527 18.0316C21.574 18.0962 21.4109 18.1953 21.2442 18.2849C20.1318 18.9059 19.1851 19.811 18.4958 20.8809C17.5984 19.7477 16.7383 18.5852 15.8892 17.416C15.8626 17.377 15.8389 17.3366 15.8146 17.296C16.1352 16.9126 16.4802 16.5503 16.8473 16.2113C18.6852 14.5 21.072 13.383 23.5688 13.0902C23.9058 13.0444 24.2461 13.036 24.5839 13Z" fill="white"/>
<path d="M30.4113 17.4873C31.1638 16.9195 31.9175 16.3528 32.6882 15.8101C34.2698 17.1265 35.4973 18.863 36.2223 20.788C37.1409 23.2052 37.2342 25.9228 36.4955 28.3997C36.2371 29.2724 35.8789 30.1124 35.4281 30.9029C35.3577 30.8429 35.3081 30.7637 35.2532 30.6913C33.801 28.7719 32.349 26.8527 30.8971 24.9337C30.6151 24.5566 30.3249 24.1859 30.0473 23.8057C30.683 23.1225 31.346 22.4632 31.9839 21.7815C31.5394 20.821 30.9028 19.9619 30.1135 19.2572C29.8034 18.9746 29.4615 18.7313 29.1161 18.4949C29.5371 18.146 29.978 17.8211 30.4113 17.4873Z" fill="white"/>
<path d="M13.8419 20.6034C14.0578 20.0691 14.2985 19.5414 14.5975 19.0481C15.0203 19.5807 15.424 20.1288 15.8389 20.6681C17.1543 22.3919 18.4691 24.1159 19.7833 25.8401C19.8694 25.9536 19.962 26.0623 20.036 26.1845C19.3723 26.8776 18.6914 27.5544 18.0304 28.2503C18.1898 28.6271 18.4057 28.9775 18.6311 29.3183C18.9731 29.8216 19.3731 30.2828 19.8229 30.6925C20.1467 30.9953 20.5084 31.2528 20.8719 31.5052C20.5551 31.7715 20.2209 32.0163 19.8942 32.2698C19.312 32.7156 18.7251 33.155 18.1334 33.5881C17.8535 33.7865 17.5851 34.0014 17.2964 34.1871C15.4342 32.6296 14.0635 30.4938 13.4267 28.1511C13.1679 27.2226 13.042 26.262 13 25.3001V24.7001C13.0139 24.4921 13.0269 24.2841 13.0414 24.0761C13.1328 22.885 13.4027 21.7143 13.8419 20.6034Z" fill="white"/>
<path d="M30.7051 30.1574C31.0019 29.8362 31.2556 29.4794 31.5031 29.1201C31.771 29.4498 32.0264 29.7897 32.2861 30.126C32.9294 30.9718 33.5661 31.8225 34.1819 32.6883C34.0062 32.9335 33.7887 33.146 33.5822 33.3655C31.8589 35.1403 29.5762 36.3655 27.1397 36.8043C26.564 36.9148 25.9781 36.9616 25.3932 36.9999H24.5244C24.2668 36.9673 24.0069 36.9619 23.7493 36.9322C22.0735 36.756 20.431 36.2271 18.9801 35.3679C19.4769 34.9891 19.9807 34.6196 20.4799 34.2434C22.3853 32.8215 24.29 31.3985 26.194 29.9744C26.5171 30.2724 26.8221 30.5896 27.1401 30.8936C27.5119 31.2495 27.8693 31.6224 28.2489 31.9707C29.1807 31.5442 30.0164 30.9148 30.7051 30.1574Z" fill="white"/>
<defs>
<linearGradient id="paint0_linear_0_62" x1="65.4238" y1="34.5371" x2="34.498" y2="-15.4629" gradientUnits="userSpaceOnUse">
<stop stop-color="#232226"/>
<stop offset="1" stop-color="#46454D"/>
</linearGradient>
</defs>
</svg>
