<svg width="50" height="50" viewBox="0 0 50 50" fill="none" xmlns="http://www.w3.org/2000/svg">
<path fill-rule="evenodd" clip-rule="evenodd" d="M22.5 1.44338C24.047 0.550212 25.953 0.550212 27.5 1.44338L44.1506 11.0566C45.6976 11.9498 46.6506 13.6004 46.6506 15.3868V34.6132C46.6506 36.3996 45.6976 38.0502 44.1506 38.9434L27.5 48.5566C25.953 49.4498 24.047 49.4498 22.5 48.5566L5.84936 38.9434C4.30236 38.0502 3.34936 36.3996 3.34936 34.6133V15.3868C3.34936 13.6004 4.30236 11.9498 5.84936 11.0566L22.5 1.44338Z" fill="url(#paint0_linear_0_98)"/>
<path fill-rule="evenodd" clip-rule="evenodd" d="M36.931 33.8181L36.9232 33.807L32.962 30.3479L34.8455 24.7232L34.851 24.7067V24.5611L32.9233 18.77C32.9206 18.754 32.9148 18.7386 32.9061 18.7247V18.7103L32.8539 18.6598C32.8395 18.6314 32.8143 18.6095 32.7836 18.5985L27.7092 15.0211L27.6792 15H21.2654C21.2279 15 21.2194 15.0058 21.139 15.0606C21.1068 15.0827 21.0624 15.1134 21.007 15.1517L20.9734 15.1749C20.8391 15.268 20.6421 15.4049 20.3882 15.5817C20.0083 15.8462 19.4963 16.2033 18.8632 16.6449L18.618 16.8159C17.3967 17.6685 16.1616 18.5317 16.0554 18.6059L16.0552 18.6061L16.0482 18.611L16.0408 18.6161L15.9434 18.7101V18.7759L14.0055 24.5443L14 24.561V24.7073L15.9449 30.4923V30.4935C15.9437 30.5329 15.9592 30.5711 15.9878 30.5993L16.0423 30.652L21.1034 34.1894C21.1237 34.224 21.1605 34.2465 21.2015 34.2493C21.2246 34.2616 21.2506 34.2681 21.277 34.2681H27.6402L27.6632 34.2459C27.6772 34.2429 27.6905 34.2378 27.7028 34.2306H27.7072L32.6303 30.7834L36.5269 34.2007C36.5525 34.2245 36.5833 34.2424 36.6171 34.2529C36.6846 34.2728 36.7566 34.2728 36.824 34.2529C36.869 34.2376 36.9066 34.2069 36.9295 34.1665C36.9694 34.1197 36.9904 34.0605 36.9886 33.9999C36.9887 33.9351 36.9687 33.8718 36.931 33.8181ZM32.5668 24.3753L32.8301 20.2577L34.196 24.3753H32.5668ZM32.83 29.0104L34.196 24.8928H32.5668L32.83 29.0104ZM18.9843 29.5594L20.6224 33.2191L16.7489 30.499L18.9843 29.5594ZM27.51 15.7945L24.9298 19.209L29.2775 19.7383L27.51 15.7945ZM29.8668 19.7088L28.2286 16.0489L32.1022 18.769L29.8668 19.7088ZM32.3399 19.2452L30.1202 20.1854L32.0603 23.6706L32.0624 23.6228L32.3399 19.2452ZM16.7907 23.6706L16.7887 23.6249L16.5111 19.2458L17.8228 19.8053L18.7308 20.1859L16.7907 23.6706ZM24.4348 18.9605L27.023 15.5361H21.8294L24.4348 18.9605ZM31.8314 24.8928L29.7571 28.6119L28.6207 26.2624L27.9813 24.8928H31.8314ZM29.7578 20.6575L27.9828 24.3753H31.8314L29.7578 20.6575ZM24.9375 19.7481L29.331 20.2786L27.5239 24.0609L24.9375 19.7481ZM27.5241 25.2076L25.4769 28.6331L24.9389 29.5199L29.331 28.9894L27.5241 25.2076ZM21.7825 24.3753L24.4344 19.9442L25.742 22.1586L27.069 24.3753H21.7825ZM24.4348 29.3247L27.069 24.8928H21.7825L23.1087 27.1089L24.4348 29.3247ZM23.4311 20.5617L21.3461 24.0602L19.5392 20.2786L23.9146 19.7481L23.4311 20.5617ZM19.5385 28.9899L23.9139 29.5204L21.3449 25.2073L20.8985 26.1314L19.5385 28.9899ZM17.0389 24.3753L19.1122 20.6583L20.2494 23.0614L20.8863 24.3753H17.0389ZM19.1126 28.6106L20.8875 24.8928H17.0389L19.1126 28.6106ZM32.0618 25.5947V25.6058L32.3395 30.022L31.0278 29.4625L30.1198 29.082L32.0618 25.5947ZM20.6224 16.0489L16.7489 18.769L18.9843 19.7088L20.6224 16.0489ZM18.7308 29.0827L16.511 30.0229L16.7886 25.6078L16.7892 25.5948L18.7308 29.0827ZM27.023 33.7321L24.4349 30.3076L21.8294 33.7321H27.023ZM32.1023 30.499L28.2287 33.2191L29.8668 29.5594L32.1023 30.499ZM21.341 15.795L19.5736 19.7387L23.9213 19.209L21.341 15.795ZM14.6552 24.3753L16.0209 20.2577L16.2843 24.3753H14.6552ZM16.0211 29.0104L16.2845 24.8928H16.2843H14.6552L16.0211 29.0104ZM23.9213 30.0591L21.341 33.4731L19.5737 29.5293L23.9213 30.0591ZM27.5101 33.4737L29.2776 29.5298L24.9297 30.0591L27.5101 33.4737Z" fill="white"/>
<defs>
<linearGradient id="paint0_linear_0_98" x1="65.4238" y1="34.5371" x2="34.498" y2="-15.4629" gradientUnits="userSpaceOnUse">
<stop stop-color="#0683C2"/>
<stop offset="1" stop-color="#069EE8"/>
</linearGradient>
</defs>
</svg>
