<svg width="50" height="50" viewBox="0 0 50 50" fill="none" xmlns="http://www.w3.org/2000/svg">
<path fill-rule="evenodd" clip-rule="evenodd" d="M22.5 1.44338C24.047 0.550212 25.953 0.550212 27.5 1.44338L44.1506 11.0566C45.6976 11.9498 46.6506 13.6004 46.6506 15.3868V34.6132C46.6506 36.3996 45.6976 38.0502 44.1506 38.9434L27.5 48.5566C25.953 49.4498 24.047 49.4498 22.5 48.5566L5.84936 38.9434C4.30236 38.0502 3.34936 36.3996 3.34936 34.6133V15.3868C3.34936 13.6004 4.30236 11.9498 5.84936 11.0566L22.5 1.44338Z" fill="url(#paint0_linear_0_165)"/>
<path fill-rule="evenodd" clip-rule="evenodd" d="M34.7004 19.5556L34.1933 19.2041L34.1932 19.204L34.1924 19.2035L34.1923 19.2034C33.4025 18.656 32.5791 18.0854 31.7704 17.5184C31.7486 17.5022 31.7269 17.486 31.6997 17.4699C31.591 17.389 31.466 17.3028 31.3138 17.2543L31.3029 17.2489C28.9022 16.6735 26.4652 16.0847 24.0912 15.5111L24.09 15.5108L24.0899 15.5108L23.4097 15.3464C22.2368 15.0638 21.0653 14.7812 19.8939 14.4986L19.8931 14.4984L19.8912 14.4979L19.8899 14.4976L19.889 14.4974L19.8889 14.4974C18.7164 14.2145 17.5438 13.9316 16.3699 13.6488C16.3101 13.6326 16.2503 13.6164 16.1851 13.6003C15.9731 13.541 15.7284 13.4763 15.4675 13.5086C15.3914 13.5194 15.3262 13.5464 15.2664 13.5841L15.2011 13.638C15.0978 13.735 15.0435 13.8589 15.0163 13.929L15 13.9721V14.22L15.0109 14.2578C16.1266 17.3575 17.2639 20.4908 18.3834 23.5752L18.3836 23.5755L18.3837 23.5759C18.7531 24.5937 19.1206 25.6062 19.4848 26.6104C19.8201 27.5343 20.1593 28.4681 20.5005 29.4074C21.3096 31.6352 22.1299 33.8936 22.9367 36.1227C23.0074 36.3383 23.2085 36.4784 23.4586 36.5H23.5129C23.7467 36.5 23.9533 36.3868 24.0566 36.2036L28.3619 29.9788C28.886 29.2223 29.41 28.4645 29.9341 27.7068L29.9357 27.7044L29.9373 27.7021L29.9378 27.7014L29.9383 27.7007C30.462 26.9434 30.9857 26.186 31.5095 25.4301C31.7237 25.1208 31.938 24.8102 32.1523 24.4996L32.1536 24.4977L32.1549 24.4958C32.3692 24.1852 32.5835 23.8746 32.7978 23.5653L32.886 23.4376L32.8863 23.4371C33.5652 22.4533 34.2631 21.4421 34.9559 20.4556L34.994 20.4017V20.3371C35.0103 20.1484 35.0157 19.7604 34.7004 19.5556ZM28.5158 22.4153L28.5157 22.4154C27.8731 22.7488 27.2244 23.0853 26.5735 23.4198L28.3891 21.4904C29.0469 20.7866 29.7295 20.0624 30.4045 19.3462L30.4052 19.3454L30.7049 19.0274L30.7212 19.0113C30.7865 18.925 30.868 18.8442 30.955 18.758C30.9698 18.7433 30.9849 18.7286 31.0002 18.7138C31.0467 18.6687 31.0948 18.6221 31.1398 18.5693C31.5421 18.8442 31.9498 19.1244 32.3412 19.3993C32.6239 19.5987 32.912 19.7981 33.2055 19.9975C32.0096 20.6011 30.8136 21.2209 29.6557 21.8245C29.2786 22.0196 28.8983 22.2168 28.516 22.4152L28.5159 22.4153L28.5158 22.4153ZM24.6763 24.1043C25.4754 23.2581 26.2799 22.4012 27.0573 21.5659L27.7425 20.8357L27.7433 20.8348C28.5479 19.9772 29.3671 19.104 30.183 18.2406C28.6064 17.8606 27.0285 17.4806 25.4505 17.1006L25.4488 17.1002L25.4472 17.0998C23.8706 16.7201 22.294 16.3405 20.7188 15.9608C20.1589 15.8207 19.5881 15.686 19.039 15.5566C18.4139 15.4111 17.7778 15.2602 17.1473 15.0985C17.1796 15.1373 17.2119 15.1755 17.244 15.2136L17.2441 15.2137L17.2441 15.2137C17.3147 15.2972 17.3845 15.3799 17.4517 15.465C17.5005 15.5238 17.5493 15.5836 17.5983 15.6437L17.5983 15.6437L17.5983 15.6437C17.7021 15.771 17.8067 15.8993 17.9138 16.0201L17.9192 16.0255C18.267 16.4404 18.6162 16.8566 18.9654 17.2728C19.3147 17.6893 19.6641 18.1057 20.0121 18.5208C21.5451 20.3478 23.127 22.2395 24.6763 24.1043ZM24.3733 31.5986L24.3733 31.5986C24.4179 31.1838 24.4629 30.7644 24.5023 30.3506L24.5512 29.8902C24.5838 29.5824 24.6165 29.2746 24.6491 28.9763L24.6835 28.6536L24.6835 28.6535C24.7492 28.0377 24.8165 27.4071 24.872 26.7882L24.8883 26.6589C24.9426 26.1954 24.997 25.7157 25.0296 25.2361C25.0894 25.2037 25.1546 25.1714 25.2253 25.1444C25.2457 25.135 25.2661 25.1259 25.2865 25.1168L25.2865 25.1168C25.3476 25.0895 25.4088 25.0623 25.4699 25.0259C26.7257 24.3738 27.9814 23.7216 29.2426 23.0749C30.4983 22.4282 31.7867 21.7599 33.0642 21.097C31.9009 22.7677 30.7321 24.4546 29.6014 26.0984L28.9639 27.0203C28.1941 28.1337 27.412 29.265 26.6333 30.383C26.412 30.7059 26.1856 31.0322 25.9608 31.3562L25.9606 31.3566L25.9605 31.3566C25.7877 31.6057 25.6159 31.8533 25.4482 32.0968C25.0133 32.722 24.5675 33.3633 24.1327 34.0047C24.187 33.358 24.2523 32.7058 24.3229 32.0699C24.3394 31.9138 24.3563 31.7566 24.3733 31.5986ZM16.6731 16.1752C16.6973 16.2405 16.7214 16.3058 16.745 16.3704C17.9735 19.7621 19.2021 23.1491 20.4306 26.536C21.0449 28.2295 21.6592 29.923 22.2735 31.6172L22.8552 33.2178C22.9313 33.4388 23.0128 33.6652 23.0944 33.8807C23.1048 33.9098 23.1161 33.9396 23.1275 33.9699C23.1458 34.0184 23.1646 34.0681 23.1813 34.1179C23.2035 33.9124 23.2246 33.707 23.2456 33.5026C23.2709 33.2565 23.296 33.0119 23.3227 32.7705C23.3327 32.6772 23.3427 32.5837 23.3527 32.49C23.4576 31.5113 23.565 30.5088 23.6543 29.5153L23.6597 29.4776C23.6597 29.4776 23.7467 28.7338 23.7847 28.4051C23.7909 28.3512 23.7974 28.297 23.8039 28.2427C23.8259 28.0577 23.8482 27.8703 23.8609 27.6829V27.6775C23.9043 27.2948 23.9424 26.9176 23.9804 26.5403C24.0045 26.3234 24.0277 26.103 24.0511 25.8809C24.0858 25.5511 24.1209 25.2175 24.1598 24.8857C24.0112 24.7224 23.8715 24.5533 23.734 24.3869C23.6855 24.3281 23.6373 24.2697 23.589 24.2121C23.4477 24.0396 23.3009 23.8618 23.1542 23.6947C22.6577 23.0983 22.1612 22.5067 21.6647 21.915C21.4165 21.6192 21.1682 21.3233 20.9199 21.0269C19.4794 19.3131 18.0007 17.5453 16.533 15.7884C16.5765 15.9141 16.6248 16.0447 16.6731 16.1752Z" fill="white"/>
<defs>
<linearGradient id="paint0_linear_0_165" x1="65.4238" y1="34.5371" x2="34.498" y2="-15.4629" gradientUnits="userSpaceOnUse">
<stop stop-color="#B81422"/>
<stop offset="1" stop-color="#D1414D"/>
</linearGradient>
</defs>
</svg>
