<svg width="50" height="50" viewBox="0 0 50 50" fill="none" xmlns="http://www.w3.org/2000/svg">
<path fill-rule="evenodd" clip-rule="evenodd" d="M22.5 1.44338C24.047 0.550212 25.953 0.550212 27.5 1.44338L44.1506 11.0566C45.6976 11.9498 46.6506 13.6004 46.6506 15.3868V34.6132C46.6506 36.3996 45.6976 38.0502 44.1506 38.9434L27.5 48.5566C25.953 49.4498 24.047 49.4498 22.5 48.5566L5.84936 38.9434C4.30236 38.0502 3.34936 36.3996 3.34936 34.6133V15.3868C3.34936 13.6004 4.30236 11.9498 5.84936 11.0566L22.5 1.44338Z" fill="url(#paint0_linear_0_145)"/>
<path fill-rule="evenodd" clip-rule="evenodd" d="M27.0328 19.852V22.3801L27.0341 22.3808C31.5815 22.5973 35 23.5273 35 24.6411C35 25.7549 31.5815 26.6849 27.0341 26.9014V35H22.981V26.9021C18.427 26.6849 15 25.7542 15 24.6394C15 23.5245 18.4254 22.5939 22.981 22.3781V19.852H17.3755V16H32.6377V19.852H27.0328ZM27.0341 26.2134V26.2155L27.0348 26.2138C31.0504 26.0292 34.049 25.3052 34.049 24.4433C34.049 23.5813 31.0517 22.8577 27.0348 22.6731V25.4959C26.9195 25.5068 26.2911 25.5605 25.0412 25.5605C24.0006 25.5605 23.2466 25.5146 22.983 25.4959V22.6731C18.9585 22.8573 15.954 23.5793 15.954 24.4443C15.954 25.3093 18.9582 26.0323 22.983 26.2162V26.2128C23.2423 26.2267 23.9782 26.2573 25.0241 26.2573C26.3323 26.2573 26.9198 26.2209 27.0341 26.2134Z" fill="white"/>
<defs>
<linearGradient id="paint0_linear_0_145" x1="65.4238" y1="34.5371" x2="34.498" y2="-15.4629" gradientUnits="userSpaceOnUse">
<stop stop-color="#1D8062"/>
<stop offset="1" stop-color="#25A17B"/>
</linearGradient>
</defs>
</svg>
