<svg width="50" height="50" viewBox="0 0 50 50" fill="none" xmlns="http://www.w3.org/2000/svg">
<path fill-rule="evenodd" clip-rule="evenodd" d="M22.5 1.44338C24.047 0.550212 25.953 0.550212 27.5 1.44338L44.1506 11.0566C45.6976 11.9498 46.6506 13.6004 46.6506 15.3868V34.6132C46.6506 36.3996 45.6976 38.0502 44.1506 38.9434L27.5 48.5566C25.953 49.4498 24.047 49.4498 22.5 48.5566L5.84936 38.9434C4.30236 38.0502 3.34936 36.3996 3.34936 34.6133V15.3868C3.34936 13.6004 4.30236 11.9498 5.84936 11.0566L22.5 1.44338Z" fill="url(#paint0_linear_0_81)"/>
<path d="M23.4581 36.0545L14.0484 16.6747C13.8953 16.3651 14.125 16 14.4642 16H17.7247C17.8997 16 18.0639 16.1001 18.1405 16.2544L25.0117 30.3137C25.6244 31.5747 27.397 31.5747 28.0097 30.3137L34.859 16.2655C34.936 16.1107 35.0996 16.0111 35.2748 16.0111H35.6796C35.9202 16.0111 36.0735 16.2655 35.964 16.4757L26.456 36.0545C25.8433 37.3152 24.0708 37.3152 23.4581 36.0545Z" fill="white"/>
<defs>
<linearGradient id="paint0_linear_0_81" x1="-15.502" y1="15.4629" x2="15.4238" y2="65.4629" gradientUnits="userSpaceOnUse">
<stop stop-color="#A575CF"/>
<stop offset="1" stop-color="#398CD4"/>
</linearGradient>
</defs>
</svg>
