<svg width="50" height="50" viewBox="0 0 50 50" fill="none" xmlns="http://www.w3.org/2000/svg">
<path fill-rule="evenodd" clip-rule="evenodd" d="M22.5 1.44338C24.047 0.550212 25.953 0.550212 27.5 1.44338L44.1506 11.0566C45.6976 11.9498 46.6506 13.6004 46.6506 15.3868V34.6132C46.6506 36.3996 45.6976 38.0502 44.1506 38.9434L27.5 48.5566C25.953 49.4498 24.047 49.4498 22.5 48.5566L5.84936 38.9434C4.30236 38.0502 3.34936 36.3996 3.34936 34.6133V15.3868C3.34936 13.6004 4.30236 11.9498 5.84936 11.0566L22.5 1.44338Z" fill="url(#paint0_linear_0_84)"/>
<path fill-rule="evenodd" clip-rule="evenodd" d="M21.6422 21.5649C22.4234 20.142 23.2216 18.7289 24.0366 17.3258C26.4231 13.2294 32.8017 12.8038 33.149 13.0589L33.1456 13.0659L33.1501 13.0613C33.4974 13.3163 35.2608 19.7283 32.3694 23.4526C31.3855 24.7177 30.3864 25.9704 29.3724 27.2105C30.4278 28.9056 31.1472 31.7684 28.6632 35.8034C28.5451 35.9936 28.3227 36.149 28.3057 35.7547C28.2671 34.7935 27.9392 32.8827 26.1462 31.0971L26.0327 31.2339C25.4824 31.911 25.0239 31.8194 24.267 31.2629L24.2069 31.2177C24.1206 31.5493 23.9788 31.8704 23.779 32.1673C23.7658 32.1861 23.7519 32.2042 23.7378 32.2224C23.7277 32.2356 23.7175 32.2488 23.7075 32.2624C22.0281 34.6776 19.6598 35.866 18.3684 34.9129C17.077 33.9622 17.3471 31.2281 18.9562 28.7607C18.9654 28.7458 18.9741 28.7309 18.9827 28.716L18.9827 28.716C18.9942 28.6961 19.0056 28.6762 19.0186 28.6564C19.2172 28.363 19.4555 28.1172 19.7222 27.9212H19.721C18.9641 27.3635 18.7281 26.9438 19.1525 26.1739L19.2127 26.0626C16.9976 24.9576 15.1615 25.2857 14.2741 25.5721C13.9053 25.6915 13.9722 25.4179 14.1084 25.2359C16.9136 21.4988 19.7256 21.1522 21.6422 21.5649ZM20.4552 28.4604C20.3478 28.5618 20.2512 28.6745 20.167 28.7966C20.1575 28.8106 20.1492 28.8245 20.1409 28.8384C20.1353 28.8477 20.1298 28.8569 20.1239 28.8662C18.9891 30.5649 18.7905 32.4386 19.6904 33.0868C20.5892 33.7326 22.2482 32.9105 23.4307 31.2478C23.4381 31.2377 23.4458 31.2282 23.4533 31.2188C23.4631 31.2067 23.4728 31.1948 23.4817 31.1817C23.56 31.0692 23.6247 30.951 23.678 30.8304L21.9952 29.5921L20.4564 28.4604H20.4552ZM26.675 22.0241C25.51 21.1591 25.2334 19.5023 26.052 18.2917C26.4387 17.7126 27.0375 17.3174 27.7131 17.1954C28.3887 17.0734 29.0839 17.235 29.6413 17.6435C30.808 18.5079 31.0852 20.1661 30.2655 21.3771C29.8787 21.9563 29.2795 22.3515 28.6036 22.4733C27.9278 22.5951 27.2324 22.4331 26.675 22.0241Z" fill="white"/>
<defs>
<linearGradient id="paint0_linear_0_84" x1="65.4238" y1="34.5371" x2="34.498" y2="-15.4629" gradientUnits="userSpaceOnUse">
<stop stop-color="#0CA2CC"/>
<stop offset="1" stop-color="#8FC9D9"/>
</linearGradient>
</defs>
</svg>
