<svg width="50" height="50" viewBox="0 0 50 50" fill="none" xmlns="http://www.w3.org/2000/svg">
<path fill-rule="evenodd" clip-rule="evenodd" d="M22.5 1.44338C24.047 0.550212 25.953 0.550212 27.5 1.44338L44.1506 11.0566C45.6976 11.9498 46.6506 13.6004 46.6506 15.3868V34.6132C46.6506 36.3996 45.6976 38.0502 44.1506 38.9434L27.5 48.5566C25.953 49.4498 24.047 49.4498 22.5 48.5566L5.84936 38.9434C4.30236 38.0502 3.34936 36.3996 3.34936 34.6133V15.3868C3.34936 13.6004 4.30236 11.9498 5.84936 11.0566L22.5 1.44338Z" fill="url(#paint0_linear_0_131)"/>
<path fill-rule="evenodd" clip-rule="evenodd" d="M34.9631 16H32.0703L27.4984 20.6441C26.1186 22.0457 23.8817 22.0457 22.502 20.6441L17.9301 16H15.0374L21.0556 22.1133C23.2342 24.3263 26.7663 24.3263 28.9448 22.1133L34.9631 16ZM15 33H17.8927L22.5018 28.3181C23.8815 26.9165 26.1184 26.9165 27.4982 28.3181L32.1073 33H35L28.9446 26.8489C26.766 24.6359 23.2339 24.6359 21.0554 26.8489L15 33Z" fill="white"/>
<defs>
<linearGradient id="paint0_linear_0_131" x1="-35.8964" y1="26.0005" x2="16.1047" y2="97.7932" gradientUnits="userSpaceOnUse">
<stop stop-color="#11AAE2"/>
<stop offset="1" stop-color="#016197"/>
</linearGradient>
</defs>
</svg>
