<svg width="50" height="50" viewBox="0 0 50 50" fill="none" xmlns="http://www.w3.org/2000/svg">
<path fill-rule="evenodd" clip-rule="evenodd" d="M22.5 1.44338C24.047 0.550212 25.953 0.550212 27.5 1.44338L44.1506 11.0566C45.6976 11.9498 46.6506 13.6004 46.6506 15.3868V34.6132C46.6506 36.3996 45.6976 38.0502 44.1506 38.9434L27.5 48.5566C25.953 49.4498 24.047 49.4498 22.5 48.5566L5.84936 38.9434C4.30236 38.0502 3.34936 36.3996 3.34936 34.6133V15.3868C3.34936 13.6004 4.30236 11.9498 5.84936 11.0566L22.5 1.44338Z" fill="url(#paint0_linear_0_181)"/>
<path fill-rule="evenodd" clip-rule="evenodd" d="M20.3306 36.057C21.8102 36.6822 23.3813 37 25.0013 37C26.6217 37 28.192 36.6822 29.6721 36.052C32.5482 34.8327 34.8378 32.543 36.057 29.6668C36.6822 28.1872 37 26.616 37 24.996C37.0042 20.1721 34.1166 15.8156 29.6721 13.9404C28.192 13.3152 26.6164 13 24.9987 13C20.1747 12.9958 15.8182 15.8834 13.943 20.3279C13.3178 21.808 13 23.3783 13 24.9987C13 26.619 13.3178 28.1898 13.9456 29.6721C15.1649 32.5482 17.4544 34.8378 20.3306 36.057ZM18.4002 18.3976C20.1638 16.637 22.5083 15.665 25.0013 15.665L25.0011 15.6652C27.4941 15.6652 29.8382 16.6368 31.6022 18.3978C33.3628 20.1614 34.3348 22.5059 34.3348 24.9989C34.3348 27.4919 33.3632 29.836 31.6022 31.6C29.8386 33.3606 27.4941 34.3326 25.0011 34.3326C22.5081 34.3326 20.164 33.361 18.4 31.6C16.6392 29.836 15.6676 27.4917 15.6676 24.9987C15.6676 22.5057 16.6362 20.1616 18.4002 18.3976Z" fill="white"/>
<path d="M24.28 27.9866H29.4796V30.5994H26.278C26.3301 31.347 26.3587 32.0394 26.4108 32.785H23.7171V30.625H20.5155C20.5155 29.7706 20.4087 28.9187 20.5675 28.1189C20.6483 27.6917 21.1276 27.3192 21.4219 26.9466C22.4353 25.7457 23.4486 24.5735 24.4881 23.3726C24.8892 22.9193 25.2877 22.4921 25.7411 21.9867H20.7551V19.3744H23.7144V17.1887H26.3011V19.3222H29.5291C29.5291 20.2026 29.6359 21.0545 29.4771 21.8568C29.3963 22.284 28.917 22.6565 28.5966 23.0291C27.5832 24.2301 26.5699 25.4022 25.5305 26.6032C25.1345 27.08 24.736 27.5045 24.2801 27.9864" fill="white"/>
<defs>
<linearGradient id="paint0_linear_0_181" x1="65.4238" y1="34.5371" x2="34.498" y2="-15.4629" gradientUnits="userSpaceOnUse">
<stop stop-color="#DB9209"/>
<stop offset="1" stop-color="#F1AD1E"/>
</linearGradient>
</defs>
</svg>
