<svg width="79" height="88" viewBox="0 0 79 88" fill="none" xmlns="http://www.w3.org/2000/svg">
<path d="M43.9416 1.59884L73.9116 18.9013C76.6962 20.509 78.4115 23.48 78.4116 26.6953V61.3048C78.4115 64.5201 76.6962 67.4912 73.9116 69.0988L43.9416 86.4013C41.157 88.009 37.7262 88.009 34.9416 86.4013L4.97162 69.0988C2.18708 67.4912 0.4717 64.5201 0.471619 61.3048V26.6953C0.4717 23.48 2.18708 20.509 4.97162 18.9013L34.9416 1.59884C37.7262 -0.00885737 41.157 -0.00885737 43.9416 1.59884Z" fill="url(#paint0_linear_0_1167)"/>
<path d="M25.9467 52.3384H59.7669C60.3834 52.3384 60.6916 53.0824 60.2558 53.5182L53.5726 60.195C52.8565 60.0892 52.3435 59.4488 52.3965 58.7269C52.4495 58.005 53.0507 57.4464 53.7745 57.4464C54.4983 57.4464 55.0995 58.005 55.1525 58.7269C55.2055 59.4488 54.6925 60.0892 53.9764 60.195H19.7524C19.9291 60.4848 19.8691 60.8601 19.6108 61.0803C19.3525 61.3006 18.9725 61.3006 18.7142 61.0803C18.456 60.8601 18.3959 60.4848 18.5726 60.195L25.2559 53.5203L25.9467 52.3384Z" fill="url(#paint1_linear_0_1167)"/>
<path d="M25.9467 27.3931H59.7669C60.3834 27.3931 60.6916 28.1371 60.2558 28.5728L53.5726 35.2476C52.8568 35.1413 52.3443 34.5007 52.3976 33.7791C52.4509 33.0574 53.0519 32.4992 53.7756 32.4992C54.4992 32.4992 55.1002 33.0574 55.1535 33.7791C55.2068 34.5007 54.6943 35.1413 53.9786 35.2476H19.7524C19.9291 35.5374 19.8691 35.9126 19.6108 36.1329C19.3525 36.3531 18.9725 36.3531 18.7142 36.1329C18.456 35.9126 18.3959 35.5374 18.5726 35.2476L25.9489 27.3931H25.9467Z" fill="url(#paint2_linear_0_1167)"/>
<path d="M54.5504 39.786C54.4165 39.8058 54.2804 39.8058 54.1465 39.786H19.7524C19.136 39.786 18.8299 40.53 19.2635 40.9658L25.9468 47.6427H59.7669C60.3834 47.6427 60.6916 46.8987 60.2558 46.4629L53.5726 39.786H54.5504Z" fill="url(#paint3_linear_0_1167)"/>
<defs>
<linearGradient id="paint0_linear_0_1167" x1="-22.2329" y1="62.4401" x2="59.6052" y2="105.216" gradientUnits="userSpaceOnUse">
<stop stop-color="#1A1A1A"/>
<stop offset="1"/>
</linearGradient>
<linearGradient id="paint1_linear_0_1167" x1="-49.3776" y1="19.5552" x2="-50.4357" y2="60.9506" gradientUnits="userSpaceOnUse">
<stop stop-color="#00FFA3"/>
<stop offset="1" stop-color="#DC1FFF"/>
</linearGradient>
<linearGradient id="paint2_linear_0_1167" x1="-49.4189" y1="17.3253" x2="-50.4765" y2="58.7281" gradientUnits="userSpaceOnUse">
<stop stop-color="#00FFA3"/>
<stop offset="1" stop-color="#DC1FFF"/>
</linearGradient>
<linearGradient id="paint3_linear_0_1167" x1="-71.5056" y1="15.816" x2="-72.3365" y2="61.217" gradientUnits="userSpaceOnUse">
<stop stop-color="#00FFA3"/>
<stop offset="1" stop-color="#DC1FFF"/>
</linearGradient>
</defs>
</svg>
