<svg width="50" height="50" viewBox="0 0 50 50" fill="none" xmlns="http://www.w3.org/2000/svg">
<path fill-rule="evenodd" clip-rule="evenodd" d="M22.5 1.44338C24.047 0.550212 25.953 0.550212 27.5 1.44338L44.1506 11.0566C45.6976 11.9498 46.6506 13.6004 46.6506 15.3868V34.6132C46.6506 36.3996 45.6976 38.0502 44.1506 38.9434L27.5 48.5566C25.953 49.4498 24.047 49.4498 22.5 48.5566L5.84936 38.9434C4.30236 38.0502 3.34936 36.3996 3.34936 34.6133V15.3868C3.34936 13.6004 4.30236 11.9498 5.84936 11.0566L22.5 1.44338Z" fill="url(#paint0_linear_0_90)"/>
<path fill-rule="evenodd" clip-rule="evenodd" d="M20.8176 17H28.1002C34.5023 17 35.6337 20.4411 34.7251 25.2783C34.1154 28.5268 32.5927 31.0159 30.0336 32.1804C28.8802 32.7063 27.7894 33 25.2264 33H17.9601L18.5649 29.6739L24.953 29.6765C28.7944 29.683 29.8188 28.0412 30.3176 26.6025C30.5047 26.0628 30.9379 24.398 30.9519 23.4131C30.9792 21.4906 30.0222 20.3326 26.7857 20.3326L20.214 20.3248L20.8176 17ZM15.3209 25.2664C15.5017 24.5237 15.7923 23.3298 17.6752 23.3298H25.1317C25.1317 23.3298 25.0543 23.7225 24.8179 24.6922C24.8155 24.7017 24.8132 24.7113 24.8109 24.721C24.6301 25.4637 24.3395 26.6576 22.4565 26.6576H15C15 26.6576 15.0775 26.265 15.3139 25.2953C15.3162 25.2857 15.3185 25.2761 15.3209 25.2664Z" fill="white"/>
<defs>
<linearGradient id="paint0_linear_0_90" x1="-25.25" y1="25.5" x2="25.75" y2="76" gradientUnits="userSpaceOnUse">
<stop stop-color="#12CEF7"/>
<stop offset="1" stop-color="#5766F2"/>
</linearGradient>
</defs>
</svg>
