<svg width="956" height="200" viewBox="0 0 956 200" fill="none" xmlns="http://www.w3.org/2000/svg">
<g id="Group 19">
<g id="Group 17">
<g id="Group 3">
<g id="Exchange Copy">
<path id="Combined Shape" fill-rule="evenodd" clip-rule="evenodd" d="M475.98 108.158C475.643 108.501 475.648 109.051 475.99 109.388C476.334 109.727 476.888 109.725 477.23 109.383L481.317 105.296L477.234 101.13C476.89 100.786 476.333 100.786 475.989 101.13C475.646 101.473 475.646 102.031 475.989 102.374L478.051 104.436L466.386 104.386C463.896 104.386 461.875 106.413 461.875 108.898V109.012C461.875 109.496 462.267 109.889 462.752 109.889C463.236 109.889 463.629 109.496 463.629 109.012V108.898C463.629 107.381 464.87 106.14 466.386 106.14H478.047L475.98 108.158Z" fill="white"/>
<path id="Combined Shape_2" fill-rule="evenodd" clip-rule="evenodd" d="M469.389 116.998L481.194 117.046C483.69 117.046 485.705 115.031 485.705 112.535V112.421C485.705 111.936 485.312 111.543 484.828 111.543C484.344 111.543 483.951 111.936 483.951 112.421V112.535C483.951 114.051 482.71 115.292 481.194 115.292H469.392L471.46 113.273C471.798 112.933 471.797 112.384 471.458 112.045C471.119 111.706 470.57 111.706 470.231 112.045L466.139 116.137L470.23 120.295C470.57 120.633 471.119 120.633 471.458 120.294C471.797 119.955 471.797 119.406 471.458 119.067L469.389 116.998Z" fill="white"/>
</g>
<path id="Path 4" opacity="0.2" d="M248.5 189.836H346.008C346.008 189.836 417.323 193.62 472.008 110.268C524.669 30 592.5 30 592.5 30H690.5" stroke="white" stroke-dasharray="3 4"/>
<path id="Path 4_2" opacity="0.1" d="M364.5 189.836H396.008C396.008 189.836 467.323 193.62 522.008 110.268C574.669 30 642.5 30 642.5 30H649.5" stroke="white" stroke-dasharray="3 4"/>
<path id="Path 4_3" opacity="0.2" d="M162.5 30.1644L345.008 30.1644C345.008 30.1644 416.323 26.3798 471.008 109.732C523.669 190 591.5 190 591.5 190H783.5" stroke="white" stroke-dasharray="3 4"/>
<path id="Path 4_4" opacity="0.1" d="M356.962 30.1644L397.008 30.1644C397.008 30.1644 468.323 26.3798 523.008 109.732C575.669 190 643.5 190 643.5 190" stroke="white" stroke-dasharray="3 4"/>
<path id="Path 4_5" opacity="0.1" d="M281.5 189.836H292.008C292.008 189.836 363.323 193.62 418.008 110.268C470.669 30 538.5 30 538.5 30H584.5" stroke="white" stroke-dasharray="3 4"/>
<path id="Path 4_6" opacity="0.1" d="M293.008 30.1644C293.008 30.1644 364.323 26.3798 419.008 109.732C471.669 190 539.5 190 539.5 190H591.672" stroke="white" stroke-dasharray="3 4"/>
<path id="bg_btc_asset" opacity="0.2" fill-rule="evenodd" clip-rule="evenodd" d="M799.02 185.138L802.48 187.122C802.802 187.307 803 187.647 803 188.016V191.984C803 192.353 802.802 192.693 802.48 192.878L799.02 194.862C798.698 195.046 798.302 195.046 797.98 194.862L794.52 192.878C794.198 192.693 794 192.353 794 191.984V188.016C794 187.647 794.198 187.307 794.52 187.122L797.98 185.138C798.302 184.954 798.698 184.954 799.02 185.138Z" fill="white"/>
<path id="bg_btc_asset_2" opacity="0.2" fill-rule="evenodd" clip-rule="evenodd" d="M149.02 25.1383L152.48 27.1223C152.802 27.3066 153 27.6473 153 28.016V31.984C153 32.3527 152.802 32.6934 152.48 32.8777L149.02 34.8617C148.698 35.0461 148.302 35.0461 147.98 34.8617L144.52 32.8777C144.198 32.6934 144 32.3527 144 31.984V28.016C144 27.6473 144.198 27.3066 144.52 27.1223L147.98 25.1383C148.302 24.9539 148.698 24.9539 149.02 25.1383Z" fill="white"/>
<g id="Sparkles">
<g id="Sparkles XMR">
<path id="bg_btc_asset_3" d="M232.2 63.4619C232.695 63.1761 233.305 63.1761 233.8 63.4619L239.128 66.5381C239.623 66.8239 239.928 67.3521 239.928 67.9238V74.0762C239.928 74.6479 239.623 75.1761 239.128 75.4619L233.8 78.5381C233.305 78.8239 232.695 78.8239 232.2 78.5381L226.872 75.4619C226.377 75.1761 226.072 74.6479 226.072 74.0762V67.9238C226.072 67.3521 226.377 66.8239 226.872 66.5381L232.2 63.4619Z" fill="url(#paint0_linear_0_1173)"/>
<path id="bg_btc_asset_4" d="M302.2 117.462C302.695 117.176 303.305 117.176 303.8 117.462L309.128 120.538C309.623 120.824 309.928 121.352 309.928 121.924V128.076C309.928 128.648 309.623 129.176 309.128 129.462L303.8 132.538C303.305 132.824 302.695 132.824 302.2 132.538L296.872 129.462C296.377 129.176 296.072 128.648 296.072 128.076V121.924C296.072 121.352 296.377 120.824 296.872 120.538L302.2 117.462Z" fill="url(#paint1_linear_0_1173)"/>
<path id="bg_btc_asset_5" d="M70.2 74.4619C70.695 74.1761 71.305 74.1761 71.8 74.4619L75.3962 76.5381C75.8912 76.8239 76.1962 77.3521 76.1962 77.9238V82.0762C76.1962 82.6479 75.8912 83.1761 75.3962 83.4619L71.8 85.5381C71.305 85.8239 70.695 85.8239 70.2 85.5381L66.6038 83.4619C66.1088 83.1761 65.8038 82.6479 65.8038 82.0762V77.9238C65.8038 77.3521 66.1088 76.8239 66.6038 76.5381L70.2 74.4619Z" fill="url(#paint2_linear_0_1173)"/>
<path id="bg_btc_asset_6" opacity="0.5" d="M349.4 99.3464C349.771 99.1321 350.229 99.1321 350.6 99.3464L354.596 101.654C354.967 101.868 355.196 102.264 355.196 102.693V107.307C355.196 107.736 354.967 108.132 354.596 108.346L350.6 110.654C350.229 110.868 349.771 110.868 349.4 110.654L345.404 108.346C345.033 108.132 344.804 107.736 344.804 107.307V102.693C344.804 102.264 345.033 101.868 345.404 101.654L349.4 99.3464Z" fill="url(#paint3_linear_0_1173)"/>
<path id="bg_btc_asset_7" opacity="0.5" d="M209.6 161.231C209.848 161.088 210.152 161.088 210.4 161.231L213.064 162.769C213.312 162.912 213.464 163.176 213.464 163.462V166.538C213.464 166.824 213.312 167.088 213.064 167.231L210.4 168.769C210.152 168.912 209.848 168.912 209.6 168.769L206.936 167.231C206.688 167.088 206.536 166.824 206.536 166.538V163.462C206.536 163.176 206.688 162.912 206.936 162.769L209.6 161.231Z" fill="url(#paint4_linear_0_1173)"/>
<path id="bg_btc_asset_8" opacity="0.5" d="M269.6 111.231C269.848 111.088 270.152 111.088 270.4 111.231L273.064 112.769C273.312 112.912 273.464 113.176 273.464 113.462V116.538C273.464 116.824 273.312 117.088 273.064 117.231L270.4 118.769C270.152 118.912 269.848 118.912 269.6 118.769L266.936 117.231C266.688 117.088 266.536 116.824 266.536 116.538V113.462C266.536 113.176 266.688 112.912 266.936 112.769L269.6 111.231Z" fill="url(#paint5_linear_0_1173)"/>
<path id="bg_btc_asset_9" d="M422.733 83.154C422.898 83.0587 423.102 83.0587 423.267 83.154L425.331 84.346C425.496 84.4413 425.598 84.6174 425.598 84.8079V87.1921C425.598 87.3826 425.496 87.5587 425.331 87.654L423.267 88.846C423.102 88.9413 422.898 88.9413 422.733 88.846L420.669 87.654C420.504 87.5587 420.402 87.3826 420.402 87.1921V84.8079C420.402 84.6174 420.504 84.4413 420.669 84.346L422.733 83.154Z" fill="url(#paint6_linear_0_1173)"/>
<path id="bg_btc_asset_10" opacity="0.5" d="M3.73333 103.154C3.89835 103.059 4.10165 103.059 4.26667 103.154L7.19743 104.846C7.36245 104.941 7.4641 105.117 7.4641 105.308V108.692C7.4641 108.883 7.36245 109.059 7.19743 109.154L4.26667 110.846C4.10165 110.941 3.89835 110.941 3.73333 110.846L0.802565 109.154C0.637551 109.059 0.535898 108.883 0.535898 108.692V105.308C0.535898 105.117 0.637551 104.941 0.802565 104.846L3.73333 103.154Z" fill="url(#paint7_linear_0_1173)"/>
</g>
<g id="Sparkles BTC">
<path id="bg_btc_asset_11" d="M644.8 112.538C644.305 112.824 643.695 112.824 643.2 112.538L637.872 109.462C637.377 109.176 637.072 108.648 637.072 108.076V101.924C637.072 101.352 637.377 100.824 637.872 100.538L643.2 97.4619C643.695 97.1761 644.305 97.1761 644.8 97.4619L650.128 100.538C650.623 100.824 650.928 101.352 650.928 101.924V108.076C650.928 108.648 650.623 109.176 650.128 109.462L644.8 112.538Z" fill="url(#paint8_linear_0_1173)"/>
<path id="bg_btc_asset_12" d="M892.7 141.596C892.267 141.846 891.733 141.846 891.3 141.596L886.638 138.904C886.205 138.654 885.938 138.192 885.938 137.692V132.308C885.938 131.808 886.205 131.346 886.638 131.096L891.3 128.404C891.733 128.154 892.267 128.154 892.7 128.404L897.362 131.096C897.795 131.346 898.062 131.808 898.062 132.308V137.692C898.062 138.192 897.795 138.654 897.362 138.904L892.7 141.596Z" fill="url(#paint9_linear_0_1173)"/>
<path id="bg_btc_asset_13" d="M585.6 87.6536C585.229 87.8679 584.771 87.8679 584.4 87.6536L580.404 85.3464C580.033 85.1321 579.804 84.7359 579.804 84.3072V79.6928C579.804 79.2641 580.033 78.8679 580.404 78.6536L584.4 76.3464C584.771 76.1321 585.229 76.1321 585.6 76.3464L589.596 78.6536C589.967 78.8679 590.196 79.2641 590.196 79.6928V84.3072C590.196 84.7359 589.967 85.1321 589.596 85.3464L585.6 87.6536Z" fill="url(#paint10_linear_0_1173)"/>
<path id="bg_btc_asset_14" opacity="0.5" d="M727.4 68.7691C727.152 68.912 726.848 68.912 726.6 68.7691L723.936 67.2309C723.688 67.088 723.536 66.8239 723.536 66.5381V63.4619C723.536 63.1761 723.688 62.912 723.936 62.7691L726.6 61.2309C726.848 61.088 727.152 61.088 727.4 61.2309L730.064 62.7691C730.312 62.912 730.464 63.1761 730.464 63.4619V66.5381C730.464 66.8239 730.312 67.088 730.064 67.2309L727.4 68.7691Z" fill="url(#paint11_linear_0_1173)"/>
<path id="bg_btc_asset_15" opacity="0.5" d="M657.4 148.769C657.152 148.912 656.848 148.912 656.6 148.769L653.936 147.231C653.688 147.088 653.536 146.824 653.536 146.538V143.462C653.536 143.176 653.688 142.912 653.936 142.769L656.6 141.231C656.848 141.088 657.152 141.088 657.4 141.231L660.064 142.769C660.312 142.912 660.464 143.176 660.464 143.462V146.538C660.464 146.824 660.312 147.088 660.064 147.231L657.4 148.769Z" fill="url(#paint12_linear_0_1173)"/>
<path id="bg_btc_asset_16" opacity="0.5" d="M707.267 118.846C707.102 118.941 706.898 118.941 706.733 118.846L704.669 117.654C704.504 117.559 704.402 117.383 704.402 117.192V114.808C704.402 114.617 704.504 114.441 704.669 114.346L706.733 113.154C706.898 113.059 707.102 113.059 707.267 113.154L709.331 114.346C709.496 114.441 709.598 114.617 709.598 114.808V117.192C709.598 117.383 709.496 117.559 709.331 117.654L707.267 118.846Z" fill="url(#paint13_linear_0_1173)"/>
<path id="bg_btc_asset_17" d="M952.267 78.846C952.102 78.9413 951.898 78.9413 951.733 78.846L948.803 77.154C948.638 77.0587 948.536 76.8826 948.536 76.6921V73.3079C948.536 73.1174 948.638 72.9413 948.803 72.846L951.733 71.154C951.898 71.0587 952.102 71.0587 952.267 71.154L955.197 72.846C955.362 72.9413 955.464 73.1174 955.464 73.3079V76.6921C955.464 76.8826 955.362 77.0587 955.197 77.154L952.267 78.846Z" fill="url(#paint14_linear_0_1173)"/>
<path id="bg_btc_asset_18" d="M523.267 128.846C523.102 128.941 522.898 128.941 522.733 128.846L520.669 127.654C520.504 127.559 520.402 127.383 520.402 127.192V124.808C520.402 124.617 520.504 124.441 520.669 124.346L522.733 123.154C522.898 123.059 523.102 123.059 523.267 123.154L525.331 124.346C525.496 124.441 525.598 124.617 525.598 124.808V127.192C525.598 127.383 525.496 127.559 525.331 127.654L523.267 128.846Z" fill="url(#paint15_linear_0_1173)"/>
</g>
</g>
<path id="bg_btc_asset_19" opacity="0.2" fill-rule="evenodd" clip-rule="evenodd" d="M142 53.4641C145.713 51.3205 150.287 51.3205 154 53.4641L193.962 76.5359C197.674 78.6795 199.962 82.641 199.962 86.9282V133.072C199.962 137.359 197.674 141.321 193.962 143.464L154 166.536C150.287 168.679 145.713 168.679 142 166.536L102.038 143.464C98.3257 141.321 96.0385 137.359 96.0385 133.072V86.9282C96.0385 82.641 98.3257 78.6795 102.038 76.5359L142 53.4641Z" stroke="white" stroke-dasharray="3 4"/>
<g id="BTC">
<path id="bg_eth_asset" d="M793.5 68.0981C796.285 66.4904 799.715 66.4904 802.5 68.0981L832.471 85.4019C835.256 87.0096 836.971 89.9808 836.971 93.1962V127.804C836.971 131.019 835.256 133.99 832.471 135.598L802.5 152.902C799.715 154.51 796.285 154.51 793.5 152.902L763.529 135.598C760.744 133.99 759.029 131.019 759.029 127.804V93.1962C759.029 89.9808 760.744 87.0096 763.529 85.4019L793.5 68.0981Z" fill="url(#paint16_linear_0_1173)"/>
<path id="Shape" fill-rule="evenodd" clip-rule="evenodd" d="M806.946 124.938C804.371 125.869 801.977 125.551 800.844 125.4L800.754 125.388C800.216 125.319 799.307 125.152 798.337 124.952L796.728 130.953L793.034 129.963L794.616 124.059L791.803 123.305L790.221 129.209L786.527 128.219L788.109 122.315L780.841 120.366L782.79 116.132L784.999 116.726C785.742 116.924 786.07 116.937 786.459 116.728C786.849 116.517 787.038 116.087 787.134 115.725L791.229 100.438C791.488 99.4795 791.479 99.2005 791.171 98.5908C790.863 97.9788 789.843 97.6368 789.261 97.4815L787.125 96.9078L788.154 93.0738L795.421 95.02L797.007 89.098L800.702 90.088L799.116 96.01L801.928 96.7638L803.517 90.8418L807.211 91.8318L805.605 97.8258C808.314 98.7348 810.224 99.808 811.657 101.61C813.513 103.939 812.598 106.875 812.355 107.571C812.114 108.264 811.439 109.544 810.582 110.257C809.724 110.973 807.969 111.445 807.969 111.445C807.969 111.445 809.661 112.307 810.669 113.594C811.673 114.881 812.159 116.805 811.448 119.241C810.741 121.68 809.587 123.98 806.946 124.938ZM799.278 112.113C797.904 111.673 796.511 111.3 795.102 110.995L792.978 118.92C792.978 118.92 795.414 119.628 797.088 119.948C798.76 120.265 800.562 120.306 801.534 120.065C802.502 119.824 803.717 119.372 804.203 117.561C804.689 115.747 803.685 114.665 803.085 114.134C802.488 113.603 801.075 112.725 799.278 112.116V112.113ZM803.224 108.232C802.036 108.525 800.52 108.45 799.158 108.142C797.799 107.832 796.085 107.319 796.085 107.319L797.997 100.186C797.997 100.186 799.199 100.4 800.351 100.726C801.503 101.052 802.511 101.361 803.906 102.234C805.301 103.107 805.893 104.488 805.566 105.843C805.24 107.197 804.412 107.94 803.224 108.232Z" fill="white"/>
</g>
<path id="bg_btc_asset_20" opacity="0.2" fill-rule="evenodd" clip-rule="evenodd" d="M792 53.4641C795.713 51.3205 800.287 51.3205 804 53.4641L843.962 76.5359C847.674 78.6795 849.962 82.641 849.962 86.9282V133.072C849.962 137.359 847.674 141.321 843.962 143.464L804 166.536C800.287 168.679 795.713 168.679 792 166.536L752.038 143.464C748.326 141.321 746.038 137.359 746.038 133.072V86.9282C746.038 82.641 748.326 78.6795 752.038 76.5359L792 53.4641Z" stroke="white" stroke-dasharray="3 4"/>
<g id="Bitcoin BTC">
<path id="BITCOIN" fill-rule="evenodd" clip-rule="evenodd" d="M848.827 193.382C849.388 192.892 849.721 192.195 849.826 191.293H848.695C848.586 191.996 848.364 192.489 848.03 192.772C847.696 193.056 847.217 193.197 846.592 193.197C845.896 193.197 845.355 192.924 844.969 192.377C844.582 191.83 844.389 191.094 844.389 190.168V189.342C844.389 188.361 844.593 187.605 845.001 187.074C845.409 186.543 845.973 186.277 846.691 186.277C847.277 186.277 847.733 186.43 848.06 186.734C848.386 187.039 848.598 187.531 848.695 188.211H849.826C849.736 187.316 849.418 186.616 848.871 186.11C848.324 185.604 847.598 185.352 846.691 185.352C846.008 185.352 845.406 185.513 844.887 185.835C844.367 186.157 843.966 186.619 843.683 187.221C843.399 187.822 843.258 188.52 843.258 189.312V190.133C843.258 191.344 843.562 192.311 844.169 193.033C844.776 193.756 845.584 194.117 846.592 194.117C847.521 194.117 848.267 193.872 848.827 193.382ZM813.99 185.469V194H816.949C817.855 194 818.557 193.781 819.053 193.344C819.549 192.906 819.797 192.305 819.797 191.539C819.797 191.039 819.663 190.608 819.396 190.247C819.128 189.886 818.764 189.641 818.303 189.512C818.693 189.344 819.002 189.106 819.229 188.8C819.455 188.493 819.568 188.141 819.568 187.742C819.568 186.992 819.335 186.426 818.868 186.043C818.401 185.66 817.705 185.469 816.779 185.469H813.99ZM815.115 193.08V190.01H816.99C818.107 190.01 818.666 190.523 818.666 191.551C818.666 192.027 818.515 192.401 818.212 192.673C817.909 192.944 817.496 193.08 816.973 193.08H815.115ZM815.115 189.107H816.814C817.307 189.107 817.7 188.984 817.995 188.738C818.29 188.492 818.438 188.158 818.438 187.736C818.438 187.268 818.301 186.927 818.027 186.714C817.754 186.501 817.338 186.395 816.779 186.395H815.115V189.107ZM825.543 194H826.668V185.469H825.543V194ZM838.449 186.395H835.707V194H834.588V186.395H831.852V185.469H838.449V186.395ZM861.924 190.01C861.924 190.846 861.783 191.575 861.502 192.198C861.221 192.821 860.822 193.297 860.307 193.625C859.791 193.953 859.189 194.117 858.502 194.117C857.83 194.117 857.234 193.952 856.715 193.622C856.195 193.292 855.792 192.821 855.505 192.21C855.218 191.599 855.07 190.891 855.062 190.086V189.471C855.062 188.65 855.205 187.926 855.49 187.297C855.775 186.668 856.179 186.187 856.7 185.853C857.222 185.519 857.818 185.352 858.49 185.352C859.174 185.352 859.776 185.517 860.298 185.847C860.819 186.177 861.221 186.655 861.502 187.282C861.783 187.909 861.924 188.639 861.924 189.471V190.01ZM860.195 187.13C860.602 187.671 860.805 188.447 860.805 189.459V190.092C860.793 191.08 860.588 191.839 860.189 192.368C859.791 192.897 859.229 193.162 858.502 193.162C857.779 193.162 857.212 192.882 856.8 192.321C856.388 191.761 856.182 190.99 856.182 190.01V189.383C856.193 188.422 856.403 187.671 856.812 187.13C857.22 186.589 857.779 186.318 858.49 186.318C859.221 186.318 859.789 186.589 860.195 187.13ZM868.818 194H867.693V185.469H868.818V194ZM880.301 194H881.432V185.469H880.312V192.072L876.006 185.469H874.875V194H876.006V187.426L880.301 194Z" fill="white" fill-opacity="0.8"/>
<path id="BTC_2" fill-rule="evenodd" clip-rule="evenodd" d="M921.985 193.382C922.546 192.892 922.879 192.195 922.984 191.293H921.854C921.744 191.996 921.522 192.489 921.188 192.772C920.854 193.056 920.375 193.197 919.75 193.197C919.055 193.197 918.514 192.924 918.127 192.377C917.74 191.83 917.547 191.094 917.547 190.168V189.342C917.547 188.361 917.751 187.605 918.159 187.074C918.567 186.543 919.131 186.277 919.85 186.277C920.436 186.277 920.892 186.43 921.218 186.734C921.544 187.039 921.756 187.531 921.854 188.211H922.984C922.895 187.316 922.576 186.616 922.029 186.11C921.482 185.604 920.756 185.352 919.85 185.352C919.166 185.352 918.564 185.513 918.045 185.835C917.525 186.157 917.124 186.619 916.841 187.221C916.558 187.822 916.416 188.52 916.416 189.312V190.133C916.416 191.344 916.72 192.311 917.327 193.033C917.935 193.756 918.742 194.117 919.75 194.117C920.68 194.117 921.425 193.872 921.985 193.382ZM894.4 194V185.469H897.189C898.115 185.469 898.812 185.66 899.278 186.043C899.745 186.426 899.979 186.992 899.979 187.742C899.979 188.141 899.865 188.493 899.639 188.8C899.412 189.106 899.104 189.344 898.713 189.512C899.174 189.641 899.538 189.886 899.806 190.247C900.073 190.608 900.207 191.039 900.207 191.539C900.207 192.305 899.959 192.906 899.463 193.344C898.967 193.781 898.266 194 897.359 194H894.4ZM895.525 190.01V193.08H897.383C897.906 193.08 898.319 192.944 898.622 192.673C898.925 192.401 899.076 192.027 899.076 191.551C899.076 190.523 898.518 190.01 897.4 190.01H895.525ZM897.225 189.107H895.525V186.395H897.189C897.748 186.395 898.164 186.501 898.438 186.714C898.711 186.927 898.848 187.268 898.848 187.736C898.848 188.158 898.7 188.492 898.405 188.738C898.11 188.984 897.717 189.107 897.225 189.107ZM911.607 186.395H908.865V194H907.746V186.395H905.01V185.469H911.607V186.395Z" fill="white" fill-opacity="0.2"/>
</g>
<g id="Solana SOL">
<path id="SOLANA" fill-rule="evenodd" clip-rule="evenodd" d="M26.2285 34.7656C27.1309 34.7656 27.8516 34.5576 28.3906 34.1416C28.9297 33.7256 29.1992 33.1719 29.1992 32.4805C29.1992 32.0469 29.1025 31.6699 28.9092 31.3496C28.7158 31.0293 28.4189 30.749 28.0186 30.5088C27.6182 30.2686 27.0635 30.0488 26.3545 29.8496C25.6455 29.6504 25.1436 29.4307 24.8486 29.1904C24.5537 28.9502 24.4062 28.6562 24.4062 28.3086C24.4062 27.875 24.5615 27.5361 24.8721 27.292C25.1826 27.0479 25.6152 26.9258 26.1699 26.9258C26.7676 26.9258 27.2305 27.0732 27.5586 27.3682C27.8867 27.6631 28.0508 28.0684 28.0508 28.584H29.1816C29.1816 28.1113 29.0557 27.6758 28.8037 27.2773C28.5518 26.8789 28.1963 26.5664 27.7373 26.3398C27.2783 26.1133 26.7559 26 26.1699 26C25.3105 26 24.6123 26.2197 24.0752 26.6592C23.5381 27.0986 23.2695 27.6543 23.2695 28.3262C23.2695 28.9199 23.4893 29.4189 23.9287 29.8232C24.3682 30.2275 25.0703 30.5684 26.0352 30.8457C26.8047 31.0684 27.3359 31.2939 27.6289 31.5225C27.9219 31.751 28.0684 32.0742 28.0684 32.4922C28.0684 32.9102 27.9102 33.2402 27.5938 33.4824C27.2773 33.7246 26.8223 33.8457 26.2285 33.8457C25.5918 33.8457 25.083 33.6963 24.7021 33.3975C24.3213 33.0986 24.1309 32.6914 24.1309 32.1758H23C23 32.6719 23.1377 33.1152 23.4131 33.5059C23.6885 33.8965 24.0801 34.2041 24.5879 34.4287C25.0957 34.6533 25.6426 34.7656 26.2285 34.7656ZM37.7812 34.7656C38.4688 34.7656 39.0703 34.6016 39.5859 34.2734C40.1016 33.9453 40.5 33.4697 40.7812 32.8467C41.0625 32.2236 41.2031 31.4941 41.2031 30.6582V30.1191C41.2031 29.2871 41.0625 28.5576 40.7812 27.9307C40.5 27.3037 40.0986 26.8252 39.5771 26.4951C39.0557 26.165 38.4531 26 37.7695 26C37.0977 26 36.501 26.167 35.9795 26.501C35.458 26.835 35.0547 27.3164 34.7695 27.9453C34.4844 28.5742 34.3418 29.2988 34.3418 30.1191V30.7344C34.3496 31.5391 34.4971 32.2471 34.7842 32.8584C35.0713 33.4697 35.4746 33.9404 35.9941 34.2705C36.5137 34.6006 37.1094 34.7656 37.7812 34.7656ZM36.0791 32.9697C36.4912 33.5303 37.0586 33.8105 37.7812 33.8105C38.5078 33.8105 39.0703 33.5459 39.4688 33.0166C39.8672 32.4873 40.0723 31.7285 40.084 30.7402V30.1074C40.084 29.0957 39.8809 28.3193 39.4746 27.7783C39.0684 27.2373 38.5 26.9668 37.7695 26.9668C37.0586 26.9668 36.499 27.2373 36.0908 27.7783C35.6826 28.3193 35.4727 29.0703 35.4609 30.0312V30.6582C35.4609 31.6387 35.667 32.4092 36.0791 32.9697ZM52.0645 34.6484V33.7285H48.0215V26.1172H46.8906V34.6484H52.0645ZM58.5957 32.4219L57.793 34.6484H56.6328L59.8906 26.1172H60.875L64.1387 34.6484H62.9844L62.1699 32.4219H58.5957ZM61.8359 31.4961H58.9355L60.3828 27.5059L61.8359 31.4961ZM70.418 28.0742V34.6484H69.2871V26.1172H70.418L74.7246 32.7207V26.1172H75.8438V34.6484H74.7129L70.418 28.0742ZM82.2812 34.6484L83.084 32.4219H86.6582L87.4727 34.6484H88.627L85.3633 26.1172H84.3789L81.1211 34.6484H82.2812ZM83.4238 31.4961H86.3242L84.8711 27.5059L83.4238 31.4961Z" fill="white" fill-opacity="0.8"/>
<path id="SOL" fill-rule="evenodd" clip-rule="evenodd" d="M105.615 34.1416C105.076 34.5576 104.355 34.7656 103.453 34.7656C102.867 34.7656 102.32 34.6533 101.812 34.4287C101.305 34.2041 100.913 33.8965 100.638 33.5059C100.362 33.1152 100.225 32.6719 100.225 32.1758H101.355C101.355 32.6914 101.546 33.0986 101.927 33.3975C102.308 33.6963 102.816 33.8457 103.453 33.8457C104.047 33.8457 104.502 33.7246 104.818 33.4824C105.135 33.2402 105.293 32.9102 105.293 32.4922C105.293 32.0742 105.146 31.751 104.854 31.5225C104.561 31.2939 104.029 31.0684 103.26 30.8457C102.295 30.5684 101.593 30.2275 101.153 29.8232C100.714 29.4189 100.494 28.9199 100.494 28.3262C100.494 27.6543 100.763 27.0986 101.3 26.6592C101.837 26.2197 102.535 26 103.395 26C103.98 26 104.503 26.1133 104.962 26.3398C105.421 26.5664 105.776 26.8789 106.028 27.2773C106.28 27.6758 106.406 28.1113 106.406 28.584H105.275C105.275 28.0684 105.111 27.6631 104.783 27.3682C104.455 27.0732 103.992 26.9258 103.395 26.9258C102.84 26.9258 102.407 27.0479 102.097 27.292C101.786 27.5361 101.631 27.875 101.631 28.3086C101.631 28.6562 101.778 28.9502 102.073 29.1904C102.368 29.4307 102.87 29.6504 103.579 29.8496C104.288 30.0488 104.843 30.2686 105.243 30.5088C105.644 30.749 105.94 31.0293 106.134 31.3496C106.327 31.6699 106.424 32.0469 106.424 32.4805C106.424 33.1719 106.154 33.7256 105.615 34.1416ZM116.811 34.2734C116.295 34.6016 115.693 34.7656 115.006 34.7656C114.334 34.7656 113.738 34.6006 113.219 34.2705C112.699 33.9404 112.296 33.4697 112.009 32.8584C111.722 32.2471 111.574 31.5391 111.566 30.7344V30.1191C111.566 29.2988 111.709 28.5742 111.994 27.9453C112.279 27.3164 112.683 26.835 113.204 26.501C113.726 26.167 114.322 26 114.994 26C115.678 26 116.28 26.165 116.802 26.4951C117.323 26.8252 117.725 27.3037 118.006 27.9307C118.287 28.5576 118.428 29.2871 118.428 30.1191V30.6582C118.428 31.4941 118.287 32.2236 118.006 32.8467C117.725 33.4697 117.326 33.9453 116.811 34.2734ZM115.006 33.8105C114.283 33.8105 113.716 33.5303 113.304 32.9697C112.892 32.4092 112.686 31.6387 112.686 30.6582V30.0312C112.697 29.0703 112.907 28.3193 113.315 27.7783C113.724 27.2373 114.283 26.9668 114.994 26.9668C115.725 26.9668 116.293 27.2373 116.699 27.7783C117.105 28.3193 117.309 29.0957 117.309 30.1074V30.7402C117.297 31.7285 117.092 32.4873 116.693 33.0166C116.295 33.5459 115.732 33.8105 115.006 33.8105ZM129.289 33.7285V34.6484H124.115V26.1172H125.246V33.7285H129.289Z" fill="white" fill-opacity="0.2"/>
</g>
</g>
</g>
<g id="SOL_2">
<path id="Path" d="M152.859 66.2443L183.787 84.1006C186.661 85.7596 188.431 88.8256 188.431 92.1437V127.856C188.431 131.174 186.661 134.24 183.787 135.899L152.859 153.756C149.986 155.415 146.445 155.415 143.572 153.756L112.644 135.899C109.77 134.24 108 131.174 108 127.856V92.1437C108 88.8256 109.77 85.7596 112.644 84.1006L143.572 66.2443C146.445 64.5852 149.986 64.5852 152.859 66.2443Z" fill="url(#paint17_linear_0_1173)"/>
<path id="Path_2" d="M132.595 119.211C132.878 118.928 133.262 118.769 133.662 118.769H170.602C171.275 118.769 171.612 119.582 171.136 120.058L163.836 127.352C163.553 127.635 163.169 127.794 162.769 127.794H125.829C125.156 127.794 124.819 126.98 125.296 126.504L132.595 119.211Z" fill="url(#paint18_linear_0_1173)"/>
<path id="Path_3" d="M132.595 91.9632C132.878 91.6802 133.262 91.5213 133.662 91.5213H170.602C171.275 91.5213 171.612 92.3349 171.136 92.8107L163.836 100.104C163.553 100.387 163.169 100.546 162.769 100.546H125.829C125.156 100.546 124.819 99.7323 125.296 99.2567L132.595 91.9632Z" fill="url(#paint19_linear_0_1173)"/>
<path id="Path_4" d="M163.836 105.5C163.553 105.217 163.169 105.058 162.769 105.058H125.829C125.156 105.058 124.819 105.872 125.296 106.348L132.595 113.641C132.878 113.924 133.262 114.083 133.662 114.083H170.602C171.275 114.083 171.612 113.269 171.136 112.794L163.836 105.5Z" fill="url(#paint20_linear_0_1173)"/>
</g>
</g>
<defs>
<linearGradient id="paint0_linear_0_1173" x1="148.568" y1="16.7715" x2="148.229" y2="104.453" gradientUnits="userSpaceOnUse">
<stop stop-color="#00FFA3"/>
<stop offset="1" stop-color="#DC1FFF"/>
</linearGradient>
<linearGradient id="paint1_linear_0_1173" x1="218.568" y1="70.7715" x2="218.229" y2="158.453" gradientUnits="userSpaceOnUse">
<stop stop-color="#00FFA3"/>
<stop offset="1" stop-color="#DC1FFF"/>
</linearGradient>
<linearGradient id="paint2_linear_0_1173" x1="7.67614" y1="39.3287" x2="7.42166" y2="105.09" gradientUnits="userSpaceOnUse">
<stop stop-color="#00FFA3"/>
<stop offset="1" stop-color="#DC1FFF"/>
</linearGradient>
<linearGradient id="paint3_linear_0_1173" x1="286.676" y1="64.3287" x2="286.422" y2="130.09" gradientUnits="userSpaceOnUse">
<stop stop-color="#00FFA3"/>
<stop offset="1" stop-color="#DC1FFF"/>
</linearGradient>
<linearGradient id="paint4_linear_0_1173" x1="167.784" y1="137.886" x2="167.614" y2="181.727" gradientUnits="userSpaceOnUse">
<stop stop-color="#00FFA3"/>
<stop offset="1" stop-color="#DC1FFF"/>
</linearGradient>
<linearGradient id="paint5_linear_0_1173" x1="227.784" y1="87.8858" x2="227.614" y2="131.727" gradientUnits="userSpaceOnUse">
<stop stop-color="#00FFA3"/>
<stop offset="1" stop-color="#DC1FFF"/>
</linearGradient>
<linearGradient id="paint6_linear_0_1173" x1="391.338" y1="65.6643" x2="391.211" y2="98.5449" gradientUnits="userSpaceOnUse">
<stop stop-color="#00FFA3"/>
<stop offset="1" stop-color="#DC1FFF"/>
</linearGradient>
<linearGradient id="paint7_linear_0_1173" x1="-38.2159" y1="79.8858" x2="-38.3856" y2="123.727" gradientUnits="userSpaceOnUse">
<stop stop-color="#00FFA3"/>
<stop offset="1" stop-color="#DC1FFF"/>
</linearGradient>
<linearGradient id="paint8_linear_0_1173" x1="633.693" y1="108.823" x2="647.59" y2="116.073" gradientUnits="userSpaceOnUse">
<stop stop-color="#FF9400"/>
<stop offset="1" stop-color="#FFBB21"/>
</linearGradient>
<linearGradient id="paint9_linear_0_1173" x1="882.982" y1="138.345" x2="895.142" y2="144.689" gradientUnits="userSpaceOnUse">
<stop stop-color="#FF9400"/>
<stop offset="1" stop-color="#FFBB21"/>
</linearGradient>
<linearGradient id="paint10_linear_0_1173" x1="577.27" y1="84.8675" x2="587.693" y2="90.3046" gradientUnits="userSpaceOnUse">
<stop stop-color="#FF9400"/>
<stop offset="1" stop-color="#FFBB21"/>
</linearGradient>
<linearGradient id="paint11_linear_0_1173" x1="721.847" y1="66.9117" x2="728.795" y2="70.5364" gradientUnits="userSpaceOnUse">
<stop stop-color="#FF9400"/>
<stop offset="1" stop-color="#FFBB21"/>
</linearGradient>
<linearGradient id="paint12_linear_0_1173" x1="651.847" y1="146.912" x2="658.795" y2="150.536" gradientUnits="userSpaceOnUse">
<stop stop-color="#FF9400"/>
<stop offset="1" stop-color="#FFBB21"/>
</linearGradient>
<linearGradient id="paint13_linear_0_1173" x1="703.135" y1="117.434" x2="708.346" y2="120.152" gradientUnits="userSpaceOnUse">
<stop stop-color="#FF9400"/>
<stop offset="1" stop-color="#FFBB21"/>
</linearGradient>
<linearGradient id="paint14_linear_0_1173" x1="946.847" y1="76.9117" x2="953.795" y2="80.5364" gradientUnits="userSpaceOnUse">
<stop stop-color="#FF9400"/>
<stop offset="1" stop-color="#FFBB21"/>
</linearGradient>
<linearGradient id="paint15_linear_0_1173" x1="519.135" y1="127.434" x2="524.346" y2="130.152" gradientUnits="userSpaceOnUse">
<stop stop-color="#FF9400"/>
<stop offset="1" stop-color="#FFBB21"/>
</linearGradient>
<linearGradient id="paint16_linear_0_1173" x1="855.975" y1="88.9937" x2="777.804" y2="48.2152" gradientUnits="userSpaceOnUse">
<stop stop-color="#FF9400"/>
<stop offset="1" stop-color="#FFBB21"/>
</linearGradient>
<linearGradient id="paint17_linear_0_1173" x1="55.9718" y1="199.037" x2="162.424" y2="233.76" gradientUnits="userSpaceOnUse">
<stop stop-color="#1A1A1A"/>
<stop offset="1"/>
</linearGradient>
<linearGradient id="paint18_linear_0_1173" x1="-96.0347" y1="78.9835" x2="-96.072" y2="128.44" gradientUnits="userSpaceOnUse">
<stop stop-color="#00FFA3"/>
<stop offset="1" stop-color="#DC1FFF"/>
</linearGradient>
<linearGradient id="paint19_linear_0_1173" x1="-96.035" y1="78.9835" x2="-96.0723" y2="128.44" gradientUnits="userSpaceOnUse">
<stop stop-color="#00FFA3"/>
<stop offset="1" stop-color="#DC1FFF"/>
</linearGradient>
<linearGradient id="paint20_linear_0_1173" x1="-96.0347" y1="78.9835" x2="-96.072" y2="128.44" gradientUnits="userSpaceOnUse">
<stop stop-color="#00FFA3"/>
<stop offset="1" stop-color="#DC1FFF"/>
</linearGradient>
</defs>
</svg>
